<?xml version="1.0" encoding="utf-8"?>
<!DOCTYPE svg PUBLIC "-//W3C//DTD SVG 1.0//EN" "http://www.w3.org/TR/2001/REC-SVG-20010904/DTD/svg10.dtd">
<svg version="1.0" xmlns="http://www.w3.org/2000/svg" width="64px" height="64px" viewBox="0 0 64 64" preserveAspectRatio="xMidYMid meet">
 <g fill="#040404">
  <path d="M0 32 l0 -32 32 0 32 0 0 32 0 32 -32 0 -32 0 0 -32z"/>
 </g>
 <g fill="#090c14">
  <path d="M25.50 20.40 c0.30 -0.65 0.65 -1.55 0.80 -2.05 0.25 -0.70 0.65 -0.80 2 -0.55 1.35 0.25 1.70 0.15 1.70 -0.50 0 -0.45 0.25 -0.80 0.55 -0.80 0.30 0 0.45 0.70 0.35 1.65 -0.15 1.35 -0.35 1.60 -1.65 1.75 -0.80 0.10 -1.70 0.50 -1.90 0.90 -0.20 0.40 -0.85 0.70 -1.35 0.70 -0.80 0 -0.90 -0.20 -0.50 -1.10z"/>
 </g>
 <g fill="#231900">
 </g>
 <g fill="#03112c">
 </g>
 <g fill="#1a1a1b">
  <path d="M34 51 c0 -0.25 0.35 -0.50 0.75 -0.50 0.40 0 0.75 0.25 0.75 0.50 0 0.30 -0.35 0.50 -0.75 0.50 -0.40 0 -0.75 -0.20 -0.75 -0.50z"/>
  <path d="M36.65 50.90 c0.10 -0.35 0.45 -0.60 0.80 -0.55 0.30 0.10 0.65 -0.35 0.75 -1 0.35 -1.55 0.20 -2.85 -0.25 -2.85 -0.60 0 -1.55 1.95 -1.20 2.50 0.45 0.70 -0.45 0.60 -1.15 -0.10 -0.45 -0.45 -0.60 -0.45 -0.60 0 0 0.35 -0.20 0.60 -0.50 0.60 -0.25 0 -0.50 -0.80 -0.50 -1.80 0 -1.55 -0.15 -1.75 -1 -1.45 -0.60 0.20 -1 0.10 -1 -0.20 0 -0.35 1.15 -0.55 3.05 -0.50 2.30 0.05 3.35 0.35 4 1 0.95 0.95 0.95 0.95 0.95 -0.05 0 -0.55 0.25 -1 0.50 -1 0.65 0 0.65 5.35 0.05 5.75 -0.25 0.15 -0.55 -0.35 -0.65 -1.10 -0.20 -1.25 -0.25 -1.30 -0.65 -0.40 -0.25 0.55 -0.65 1.15 -0.95 1.35 -0.85 0.60 -1.90 0.45 -1.65 -0.20z m-0.35 -3.65 c-0.10 -0.80 -0.45 -0.95 -1.40 -0.65 -0.75 0.25 -0.05 1.40 0.85 1.40 0.35 0 0.60 -0.35 0.55 -0.75z"/>
 </g>
 <g fill="#061b40">
 </g>
 <g fill="#422f01">
 </g>
 <g fill="#28282a">
 </g>
 <g fill="#072458">
 </g>
 <g fill="#363536">
  <path d="M40 50.50 c0 -0.55 0.25 -1 0.50 -1 0.30 0 0.50 0.45 0.50 1 0 0.55 -0.20 1 -0.50 1 -0.25 0 -0.50 -0.45 -0.50 -1z"/>
  <path d="M38.55 47.15 c0.10 -1.20 0.10 -1.25 0.30 -0.25 0.30 1.50 1.15 1.40 1.15 -0.15 0 -0.70 0.25 -1.25 0.50 -1.25 0.30 0 0.50 0.70 0.50 1.50 0 1.25 -0.20 1.50 -1.25 1.50 -1.05 0 -1.25 -0.20 -1.20 -1.35z"/>
 </g>
 <g fill="#0b3275">
 </g>
 <g fill="#6c4e00">
 </g>
 <g fill="#414041">
  <path d="M40 50.30 c0 -1.45 -0.80 -1.75 -1.15 -0.40 -0.15 0.45 -0.25 -0.25 -0.20 -1.65 0 -1.35 0.10 -2 0.20 -1.35 0.40 1.90 1.45 1.25 1.20 -0.75 -0.05 -0.35 0.15 -0.65 0.45 -0.65 0.65 0 0.65 5.35 0 5.75 -0.30 0.20 -0.50 -0.25 -0.50 -0.95z"/>
 </g>
 <g fill="#0e3f8f">
  <path d="M25.75 35.45 c-0.45 -0.85 -0.70 -2 -0.60 -2.60 l0.20 -1.10 0.40 1.15 c0.20 0.60 0.90 1.25 1.55 1.40 1.25 0.30 1.40 0.60 0.90 1.90 -0.50 1.25 -1.60 0.95 -2.45 -0.75z"/>
  <path d="M31.35 35.50 c0.50 -0.55 1.50 -1 2.25 -1 1.05 0 1.40 0.25 1.40 1 0 0.85 -0.35 1 -2.25 1 -2.20 0 -2.20 0 -1.40 -1z"/>
  <path d="M25 22.50 c0 -2.10 1.40 -3.95 3.10 -4.10 1.25 -0.10 1.70 -0.45 1.90 -1.35 0.40 -1.70 1.50 -1.95 1.50 -0.40 0 1.25 0.80 1.85 2.55 1.85 0.70 0 0.95 0.35 0.95 1.25 0 1.05 -0.25 1.25 -1.45 1.25 -0.80 0 -1.70 -0.35 -2.05 -0.75 -0.60 -0.70 -0.75 -0.70 -1.50 0 -0.45 0.40 -1.20 0.75 -1.60 0.75 -1.35 0 -2.40 0.55 -2.40 1.25 0 0.40 -0.20 0.85 -0.50 1 -0.25 0.15 -0.50 -0.15 -0.50 -0.75z"/>
 </g>
 <g fill="#515052">
  <path d="M40.10 50.50 c0.20 -1.40 -0.90 -1.95 -1.25 -0.65 -0.20 0.70 -0.25 0.65 -0.30 -0.20 -0.05 -0.90 0.20 -1.15 1.20 -1.15 1 0 1.25 0.25 1.25 1.20 0 0.70 -0.25 1.40 -0.55 1.60 -0.35 0.20 -0.45 -0.10 -0.35 -0.80z"/>
  <path d="M40.35 46.80 c-0.20 -0.50 -0.25 -1.05 -0.10 -1.20 0.45 -0.45 0.85 0.30 0.65 1.25 -0.15 0.85 -0.20 0.85 -0.55 -0.05z"/>
 </g>
 <g fill="#8c6702">
 </g>
 <g fill="#0f4aa4">
  <path d="M30.50 39.30 c0 -1.10 -1.45 -2.30 -2.80 -2.30 -0.65 0 -1.20 -0.25 -1.20 -0.55 0 -0.30 -0.35 -0.85 -0.75 -1.25 -0.85 -0.90 -1.05 -3.45 -0.20 -2.95 0.30 0.20 0.40 0.65 0.25 1 -0.25 0.75 0.70 1.25 2.35 1.25 0.55 0 1.45 0.40 1.95 0.85 0.60 0.55 1.10 0.65 1.30 0.35 0.20 -0.30 1.15 -0.75 2.10 -1 1 -0.30 1.95 -0.95 2.25 -1.60 0.70 -1.55 1.35 -1.35 0.95 0.30 -0.50 2.20 -1.65 3.60 -2.85 3.60 -1.40 0 -2.35 0.85 -2.35 2.10 0 0.50 -0.20 0.90 -0.50 0.90 -0.25 0 -0.50 -0.30 -0.50 -0.70z"/>
  <path d="M35.85 22.45 c-0.15 -0.55 -0.75 -1.15 -1.30 -1.30 -0.60 -0.15 -1.05 -0.60 -1.05 -0.95 0 -0.75 -1.05 -0.75 -1.55 0 -0.20 0.25 -0.50 -0.10 -0.70 -0.75 -0.20 -0.65 -0.65 -1.35 -0.95 -1.55 -0.35 -0.25 -0.25 -0.40 0.30 -0.40 0.45 0 1 0.25 1.15 0.50 0.15 0.30 0.95 0.50 1.75 0.50 1.60 0 2.65 1.20 3.20 3.65 0.35 1.55 -0.45 1.90 -0.85 0.30z"/>
  <path d="M26 19.55 c0.55 -1.10 2.65 -1.40 3.95 -0.60 1.15 0.75 0.15 1.55 -1.25 1.05 -0.85 -0.35 -1.60 -0.30 -2.25 0.05 -0.95 0.50 -0.95 0.45 -0.45 -0.50z"/>
 </g>
 <g fill="#636263">
  <path d="M40.25 50.45 c0.20 -0.30 -0.10 -0.95 -0.70 -1.50 -0.60 -0.55 -1 -1.50 -1 -2.10 0.10 -1.10 0.10 -1.10 0.30 0.05 0.30 1.45 1.45 1.15 1.30 -0.35 -0.10 -0.65 0.05 -1 0.35 -0.80 0.65 0.40 0.65 5.25 -0.05 5.25 -0.25 0 -0.35 -0.25 -0.20 -0.55z"/>
 </g>
 <g fill="#ac7f00">
 </g>
 <g fill="#757575">
  <path d="M38.40 48.70 c0.15 -1.20 0.35 -1.60 0.60 -1.15 0.35 0.50 0.60 0.50 1.30 -0.10 0.80 -0.65 0.85 -0.60 0.55 0.20 -0.20 0.50 -0.35 1.15 -0.35 1.40 0 0.20 -0.35 0.30 -0.75 0.15 -0.45 -0.20 -0.75 0 -0.75 0.50 0 0.45 -0.20 0.80 -0.40 0.80 -0.20 0 -0.30 -0.80 -0.20 -1.80z"/>
 </g>
 <g fill="#cf9508">
 </g>
 <g fill="#e9ac00">
 </g>
 <g fill="#8b8b8a">
  <path d="M38.40 48.70 c0.15 -1.10 0.35 -1.55 0.60 -1.20 0.20 0.35 0.65 0.45 0.95 0.30 0.30 -0.20 0.55 0 0.55 0.45 0 0.45 -0.25 0.65 -0.55 0.50 -0.30 -0.20 -0.65 0.10 -0.80 0.70 -0.45 1.70 -0.95 1.20 -0.75 -0.75z"/>
 </g>
 <g fill="#fdc202">
  <path d="M30.65 28.95 c-1.25 -1.90 -1.40 -1.95 -2 -1.15 -0.35 0.50 -0.65 1.30 -0.65 1.80 0 0.50 -0.20 0.90 -0.50 0.90 -0.25 0 -0.50 -0.55 -0.50 -1.25 0 -1.85 1.35 -4.75 2.15 -4.75 0.40 0 1.35 0.95 2.10 2.10 1.50 2.25 1.50 2.25 2.45 -0.75 0.15 -0.50 0.50 -0.80 0.80 -0.60 1 0.60 -0.80 5.75 -2 5.75 -0.25 0 -1.10 -0.90 -1.85 -2.05z"/>
 </g>
 <g fill="#9e9e9c">
  <path d="M38.60 47.75 c0 -1.20 0.10 -1.55 0.25 -0.85 0.15 0.75 0.50 1.10 0.95 0.90 0.40 -0.15 0.70 0.05 0.70 0.50 0 0.45 -0.25 0.60 -0.55 0.40 -0.30 -0.15 -0.75 0 -1 0.35 -0.30 0.45 -0.40 0 -0.35 -1.30z"/>
 </g>
 <g fill="#aeadac">
  <path d="M38.65 48.50 c-0.05 -1.25 0.05 -1.85 0.20 -1.35 0.10 0.45 0.55 0.85 0.95 0.85 0.40 0 0.70 0.20 0.70 0.50 0 0.25 -0.30 0.35 -0.70 0.20 -0.45 -0.20 -0.80 0.15 -0.95 0.90 -0.10 0.65 -0.20 0.15 -0.20 -1.10z"/>
 </g>
 <g fill="#c0c1bf">
 </g>
 <g fill="#d1d1ce">
  <path d="M38.65 48.25 c0 -1.10 0.10 -1.50 0.20 -0.85 0.10 0.60 0.10 1.50 0 2 -0.15 0.45 -0.25 -0.05 -0.20 -1.15z"/>
 </g>
 <g fill="#dedfdc">
 </g>
 <g fill="#ebebe9">
  <path d="M22.50 50.40 c0 -0.80 0.25 -1.40 0.50 -1.40 0.30 0 0.50 -0.45 0.50 -0.95 0 -0.55 0.15 -1.30 0.30 -1.75 0.40 -1.10 3 -1.05 3.65 0.10 0.45 0.70 0.50 0.70 0.55 0.05 0 -0.50 0.55 -0.75 1.75 -0.80 1.85 -0.05 2.15 0.25 1.15 1.30 -0.50 0.55 -0.50 0.70 0 0.90 0.30 0.15 0.60 0.90 0.60 1.75 0 1.40 -0.10 1.50 -1.50 1.30 -0.85 -0.15 -1.50 0 -1.50 0.30 0 0.30 -0.35 0.10 -0.75 -0.40 -0.65 -0.85 -0.75 -0.90 -0.75 -0.15 0 1.70 -1 0.80 -1.55 -1.40 -0.70 -2.80 -1.45 -3.40 -1.45 -1.15 0 0.95 -0.35 2.15 -0.75 2.70 -0.70 0.90 -0.70 0.90 -0.75 -0.40z m8 -0.85 c0 -0.25 -0.35 -0.55 -0.75 -0.75 -0.45 -0.15 -0.75 0 -0.75 0.45 0 0.40 0.35 0.75 0.75 0.75 0.40 0 0.75 -0.20 0.75 -0.45z"/>
  <path d="M24 50.80 c0 -1.10 0.85 -1.40 1.20 -0.50 0.45 1.10 0.40 1.20 -0.45 1.20 -0.40 0 -0.75 -0.30 -0.75 -0.70z"/>
  <path d="M36.50 51.05 c0 -0.25 0.45 -0.55 1.05 -0.70 0.85 -0.25 1 -0.60 0.85 -2.15 -0.15 -2 -1.15 -2.85 -1.55 -1.35 -0.20 0.70 -0.25 0.65 -0.30 -0.20 -0.05 -1.20 0.30 -1.35 1.65 -0.85 0.95 0.35 1.10 4.20 0.20 5.10 -0.70 0.70 -1.90 0.80 -1.90 0.15z"/>
  <path d="M34 48.55 c0 -0.55 0.20 -1.05 0.45 -1.05 0.90 0 1.05 0.90 0.30 1.50 -0.65 0.50 -0.75 0.45 -0.75 -0.45z"/>
  <path d="M32 45.95 c0 -0.25 0.95 -0.45 2.10 -0.45 1.15 0 1.90 0.15 1.75 0.30 -0.50 0.55 -3.85 0.65 -3.85 0.15z"/>
 </g>
 <g fill="#fcfbfa">
  <path d="M22.50 48.55 c0 -2.75 0.10 -3.10 0.75 -2.55 0.95 0.80 0.95 3.50 0 4.80 -0.65 0.85 -0.70 0.65 -0.75 -2.25z"/>
  <path d="M24.25 50.65 c0.10 -0.50 0.20 -1 0.20 -1.15 0.10 -0.35 1.05 1.15 1.05 1.65 0 0.20 -0.30 0.35 -0.70 0.35 -0.40 0 -0.65 -0.40 -0.55 -0.85z"/>
  <path d="M25.70 50.15 c-0.20 -1.20 -0.75 -2.55 -1.60 -4.25 -0.40 -0.75 2.25 -0.15 3.25 0.75 1.10 1 1.10 1 0.90 -0.05 -0.15 -0.95 0.05 -0.85 1.55 0.60 2.35 2.30 2.25 4.05 -0.25 4.05 -1.25 0.05 -1.80 -0.25 -2.20 -1.10 -0.30 -0.65 -0.75 -1.15 -1.05 -1.15 -0.30 0 -0.25 0.25 0.10 0.60 0.70 0.70 0.80 1.90 0.10 1.90 -0.25 0 -0.60 -0.60 -0.80 -1.35z m4.95 -0.50 c0.30 -0.55 -1.55 -2.20 -1.90 -1.70 -0.40 0.70 0.30 2.05 1 2.05 0.40 0 0.80 -0.15 0.90 -0.35z m-3.65 -2.20 c0 -0.30 -0.20 -0.35 -0.50 -0.20 -0.25 0.15 -0.50 0.05 -0.50 -0.30 0 -0.35 -0.10 -0.50 -0.25 -0.35 -0.45 0.40 0.30 1.90 0.80 1.60 0.25 -0.15 0.45 -0.50 0.45 -0.75z"/>
  <path d="M37.50 51.20 c0 -0.25 0.35 -0.90 0.75 -1.40 0.60 -0.80 0.75 -0.85 0.75 -0.20 0 0.40 -0.35 1.05 -0.75 1.40 -0.40 0.35 -0.75 0.45 -0.75 0.20z"/>
 </g>
</svg>